# xmcd
#
# Track frame offsets:
#	150
#	18464
#	34080
#	49673
#	70091
#	85554
#	99437
#	113683
#	128028
#	146468
#
# Disc length: 2186 seconds
#
# Revision: 1
# Processed by: cddbd v1.4PL0 Copyright (c) Steve Scherf et al.
# Submitted via: audiograbber 1.80
#
DISCID=7608880a
DTITLE=Katja Kaye - For Mom
DYEAR=1900
DGENRE=
TTITLE0=It's Up To You, It's Up To Me
TTITLE1=Now She Knows
TTITLE2=Take It
TTITLE3=City Of New Orleans
TTITLE4=L.A. International Airport
TTITLE5=Last Thing On My Mind
TTITLE6=Blanket On The Ground
TTITLE7=Country Roads
TTITLE8=Will The Circle Be Unbroken
TTITLE9=Leaving On A Jetplane
EXTD=Produced by Katja Kaye\nExecutive producer Tom Cunningham\nRecorded and mi
EXTD=xed by Jim DeBlanc at\nNightingale Studios, Nashville, TN\nand Nils Tuxen 
EXTD=at Lick Lab Studio, Maschen\n
EXTT0=Katja Bottenberg - Allen Sostrin, BMI
EXTT1=Katja Bottenberg
EXTT2=Katja Bottenberg
EXTT3=Steve Goodman
EXTT4=Leanne Scott
EXTT5=Tom Paxton
EXTT6=Bowling
EXTT7=Danoff - Nivert - Denver
EXTT8=Trad.
EXTT9=John Denver
PLAYORDER=
